<svg width="120" height="120" viewBox="0 0 120 120" fill="none" xmlns="http://www.w3.org/2000/svg">
<rect width="120" height="120"/>
<rect x="11" y="20" width="98" height="79" rx="13" stroke="black" stroke-width="2"/>
<rect x="79" y="10" width="4" height="99" rx="1" fill="black"/>
<path d="M46.45 80.65C45.85 80.3167 45.5167 79.95 45.45 79.55C45.4167 79.15 45.65 78.45 46.15 77.45C46.65 76.45 47.4333 74.9 48.5 72.8C49.3 71.3 49.9 70.1333 50.3 69.3C50.7333 68.4333 51.0167 67.8167 51.15 67.45C51.3167 67.0833 51.4 66.85 51.4 66.75C51.3333 66.45 51.3667 66.2167 51.5 66.05C51.6333 65.85 51.85 65.6833 52.15 65.55C52.3167 65.3833 52.5833 65.0833 52.95 64.65C53.35 64.2167 53.7167 63.7 54.05 63.1C54.35 62.4 54.7 61.6833 55.1 60.95C55.5 60.2167 56.0333 59.3 56.7 58.2C57.3667 57.0667 58.2333 55.6 59.3 53.8C59.9667 52.6333 60.7 51.45 61.5 50.25C62.3 49.0167 63.15 47.8 64.05 46.6C64.4167 46.1333 64.75 45.7667 65.05 45.5C65.35 45.2 65.65 45.0667 65.95 45.1C66.35 45.1 66.8 45.2333 67.3 45.5C67.8333 45.7667 68.3167 46.1167 68.75 46.55C69.1833 46.9833 69.5 47.45 69.7 47.95C69.8667 48.2167 69.9333 48.7833 69.9 49.65C69.8667 50.5167 69.8 51.5667 69.7 52.8C69.6 54.0333 69.4833 55.35 69.35 56.75C69.25 58.1167 69.1 59.7333 68.9 61.6C68.7 63.4667 68.5 65.4167 68.3 67.45C68.1333 69.4833 68 71.45 67.9 73.35C67.8 75.2167 67.8 76.85 67.9 78.25C67.9333 78.55 67.9333 78.8333 67.9 79.1C67.8667 79.3667 67.85 79.5833 67.85 79.75C67.65 79.95 67.3167 80.0333 66.85 80C66.4167 80 65.9833 79.9 65.55 79.7C65.15 79.5 64.9167 79.25 64.85 78.95C64.75 78.85 64.6833 78.7167 64.65 78.55C64.65 78.35 64.6667 77.95 64.7 77.35C64.7333 76.75 64.7667 75.8 64.8 74.5L65.05 66.4L64.4 66.45C64.1 66.45 63.5333 66.4833 62.7 66.55C61.8667 66.6167 60.9667 66.7167 60 66.85C59.0333 66.95 58.1333 67.0667 57.3 67.2C56.5 67.3 55.95 67.4 55.65 67.5C55.35 67.5 54.9833 67.7 54.55 68.1C54.15 68.5 53.7667 69.0167 53.4 69.65C53.2667 70.1167 53.0167 70.6167 52.65 71.15C52.3167 71.65 52.15 71.9833 52.15 72.15C51.9167 72.3167 51.7167 72.5167 51.55 72.75C51.4167 72.9833 51.35 73.1 51.35 73.1C51.35 73.3 51.1833 73.8 50.85 74.6C50.55 75.3667 50.1667 76.2333 49.7 77.2C49.2333 78.1333 48.7667 78.95 48.3 79.65L47.25 81.25L46.45 80.65ZM56.8 64.55C56.8 64.55 56.9667 64.5167 57.3 64.45C57.6667 64.3833 58.0833 64.3167 58.55 64.25C59.05 64.15 59.5 64.1 59.9 64.1C61.3 63.7667 62.3167 63.55 62.95 63.45C63.5833 63.3167 64.0167 63.25 64.25 63.25C64.5167 63.25 64.75 63.3 64.95 63.4C65.0833 63.5667 65.2 63.6667 65.3 63.7C65.4333 63.7333 65.5 63.75 65.5 63.75C65.5333 63.6833 65.5833 63.3 65.65 62.6C65.7167 61.9 65.8 61.0333 65.9 60C66.0333 58.9667 66.15 57.9 66.25 56.8C66.3833 55.6667 66.4833 54.6333 66.55 53.7C66.6167 52.7333 66.6667 52 66.7 51.5C66.7333 50.8667 66.7667 50.3 66.8 49.8C66.8333 49.2667 66.85 49 66.85 49C66.65 49 66.2167 49.3667 65.55 50.1C64.9167 50.8333 64.2 51.8 63.4 53C62.6 54.2 61.85 55.4833 61.15 56.85C60.8167 57.4833 60.5 58.05 60.2 58.55C59.9 59.05 59.6667 59.3 59.5 59.3C59.4333 59.3667 59.2333 59.6667 58.9 60.2C58.6 60.7 58.2667 61.2833 57.9 61.95C57.5333 62.5833 57.2333 63.1667 57 63.7C56.7667 64.2 56.7 64.4833 56.8 64.55Z" fill="black"/>
<rect x="68" y="10" width="26" height="4" rx="2" fill="black"/>
<rect x="68" y="105" width="26" height="4" rx="2" fill="black"/>
</svg>
